<svg xmlns="http://www.w3.org/2000/svg" width="520" height="252" viewBox="0 0 520 252" role="img" aria-labelledby="title desc">
  <title id="title">Most used languages for kobadaidesu</title>
  <desc id="desc">Language usage from public repositories, forks included, based on counted files.</desc>
  <style>
    .card { fill: #0d1117; stroke: #30363d; }
    .title { fill: #58a6ff; font: 600 18px -apple-system, BlinkMacSystemFont, Segoe UI, Helvetica, Arial, sans-serif; }
    .lang { fill: #c9d1d9; font: 600 14px -apple-system, BlinkMacSystemFont, Segoe UI, Helvetica, Arial, sans-serif; }
    .pct { fill: #8b949e; font: 400 14px -apple-system, BlinkMacSystemFont, Segoe UI, Helvetica, Arial, sans-serif; }
  </style>
  <rect class="card" x="0.5" y="0.5" width="519" height="251" rx="6"/>
  <text x="24" y="36" class="title">Most Used Languages</text>
  <rect x="24" y="58" width="472" height="10" rx="5" fill="#21262d"/>
  <rect x="24" y="58" width="171" height="10" rx="5" fill="#555555"/>
    <rect x="195" y="58" width="78" height="10" rx="0" fill="#DA5B0B"/>
    <rect x="273" y="58" width="71" height="10" rx="0" fill="#3572A5"/>
    <rect x="344" y="58" width="61" height="10" rx="0" fill="#3178C6"/>
    <rect x="405" y="58" width="32" height="10" rx="0" fill="#E34C26"/>
    <rect x="437" y="58" width="18" height="10" rx="0" fill="#F05138"/>
    <rect x="455" y="58" width="10" height="10" rx="0" fill="#563D7C"/>
    <rect x="465" y="58" width="7" height="10" rx="0" fill="#6E4C13"/>
    <rect x="472" y="58" width="24" height="10" rx="0" fill="#8B949E"/>
  
    <circle cx="30" cy="87" r="5" fill="#555555"/>
    <text x="44" y="92" class="lang">C</text>
    <text x="184" y="92" class="pct">36.3%</text>

    <circle cx="276" cy="87" r="5" fill="#DA5B0B"/>
    <text x="290" y="92" class="lang">Jupyter Notebook</text>
    <text x="430" y="92" class="pct">16.4%</text>

    <circle cx="30" cy="117" r="5" fill="#3572A5"/>
    <text x="44" y="122" class="lang">Python</text>
    <text x="184" y="122" class="pct">15.1%</text>

    <circle cx="276" cy="117" r="5" fill="#3178C6"/>
    <text x="290" y="122" class="lang">TypeScript</text>
    <text x="430" y="122" class="pct">12.9%</text>

    <circle cx="30" cy="147" r="5" fill="#E34C26"/>
    <text x="44" y="152" class="lang">HTML</text>
    <text x="184" y="152" class="pct">6.8%</text>

    <circle cx="276" cy="147" r="5" fill="#F05138"/>
    <text x="290" y="152" class="lang">Swift</text>
    <text x="430" y="152" class="pct">3.9%</text>

    <circle cx="30" cy="177" r="5" fill="#563D7C"/>
    <text x="44" y="182" class="lang">CSS</text>
    <text x="184" y="182" class="pct">2.0%</text>

    <circle cx="276" cy="177" r="5" fill="#6E4C13"/>
    <text x="290" y="182" class="lang">Assembly</text>
    <text x="430" y="182" class="pct">1.5%</text>

    <circle cx="30" cy="207" r="5" fill="#8B949E"/>
    <text x="44" y="212" class="lang">Other</text>
    <text x="184" y="212" class="pct">5.1%</text>
</svg>
