<svg xmlns="http://www.w3.org/2000/svg" width="520" height="252" viewBox="0 0 520 252" role="img" aria-labelledby="title desc">
  <title id="title">Most used languages for kobadaidesu</title>
  <desc id="desc">Language usage from public repositories, forks included, based on counted files.</desc>
  <style>
    .card { fill: #0d1117; stroke: #30363d; }
    .title { fill: #58a6ff; font: 600 18px -apple-system, BlinkMacSystemFont, Segoe UI, Helvetica, Arial, sans-serif; }
    .lang { fill: #c9d1d9; font: 600 14px -apple-system, BlinkMacSystemFont, Segoe UI, Helvetica, Arial, sans-serif; }
    .pct { fill: #8b949e; font: 400 14px -apple-system, BlinkMacSystemFont, Segoe UI, Helvetica, Arial, sans-serif; }
  </style>
  <rect class="card" x="0.5" y="0.5" width="519" height="251" rx="6"/>
  <text x="24" y="36" class="title">Most Used Languages</text>
  <rect x="24" y="58" width="472" height="10" rx="5" fill="#21262d"/>
  <rect x="24" y="58" width="168" height="10" rx="5" fill="#555555"/>
    <rect x="192" y="58" width="76" height="10" rx="0" fill="#DA5B0B"/>
    <rect x="268" y="58" width="70" height="10" rx="0" fill="#3572A5"/>
    <rect x="338" y="58" width="60" height="10" rx="0" fill="#3178C6"/>
    <rect x="398" y="58" width="31" height="10" rx="0" fill="#E34C26"/>
    <rect x="429" y="58" width="22" height="10" rx="0" fill="#F05138"/>
    <rect x="451" y="58" width="9" height="10" rx="0" fill="#563D7C"/>
    <rect x="460" y="58" width="8" height="10" rx="0" fill="#89E051"/>
    <rect x="468" y="58" width="28" height="10" rx="0" fill="#8B949E"/>
  
    <circle cx="30" cy="87" r="5" fill="#555555"/>
    <text x="44" y="92" class="lang">C</text>
    <text x="184" y="92" class="pct">35.5%</text>

    <circle cx="276" cy="87" r="5" fill="#DA5B0B"/>
    <text x="290" y="92" class="lang">Jupyter Notebook</text>
    <text x="430" y="92" class="pct">16.1%</text>

    <circle cx="30" cy="117" r="5" fill="#3572A5"/>
    <text x="44" y="122" class="lang">Python</text>
    <text x="184" y="122" class="pct">14.8%</text>

    <circle cx="276" cy="117" r="5" fill="#3178C6"/>
    <text x="290" y="122" class="lang">TypeScript</text>
    <text x="430" y="122" class="pct">12.6%</text>

    <circle cx="30" cy="147" r="5" fill="#E34C26"/>
    <text x="44" y="152" class="lang">HTML</text>
    <text x="184" y="152" class="pct">6.6%</text>

    <circle cx="276" cy="147" r="5" fill="#F05138"/>
    <text x="290" y="152" class="lang">Swift</text>
    <text x="430" y="152" class="pct">4.7%</text>

    <circle cx="30" cy="177" r="5" fill="#563D7C"/>
    <text x="44" y="182" class="lang">CSS</text>
    <text x="184" y="182" class="pct">2.0%</text>

    <circle cx="276" cy="177" r="5" fill="#89E051"/>
    <text x="290" y="182" class="lang">Shell</text>
    <text x="430" y="182" class="pct">1.7%</text>

    <circle cx="30" cy="207" r="5" fill="#8B949E"/>
    <text x="44" y="212" class="lang">Other</text>
    <text x="184" y="212" class="pct">6.0%</text>
</svg>
