<svg xmlns="http://www.w3.org/2000/svg" width="760" height="250" viewBox="0 0 760 250" role="img" aria-labelledby="title desc">
  <title id="title">kobadaidesu language stats</title>
  <desc id="desc">A horizontal language usage chart generated from extension-based file counts for public repositories, including forks.</desc>
  <defs>
    <clipPath id="language-bar">
      <rect x="24" y="66" width="712" height="12" rx="6" ry="6"/>
    </clipPath>
  </defs>

  <text x="24" y="38" fill="#f0f6fc" font-family="Inter, Segoe UI, Arial, sans-serif" font-size="30" font-weight="700">Languages</text>

  <rect x="24" y="66" width="712" height="12" rx="6" fill="#30363d"/>
  <rect x="24.00" y="66" width="177.58" height="12" fill="#555555" clip-path="url(#language-bar)"/>
  <rect x="201.58" y="66" width="162.50" height="12" fill="#da5b0b" clip-path="url(#language-bar)"/>
  <rect x="364.08" y="66" width="122.30" height="12" fill="#3178c6" clip-path="url(#language-bar)"/>
  <rect x="486.38" y="66" width="72.04" height="12" fill="#e34c26" clip-path="url(#language-bar)"/>
  <rect x="558.42" y="66" width="68.69" height="12" fill="#3572A5" clip-path="url(#language-bar)"/>
  <rect x="627.11" y="66" width="18.43" height="12" fill="#563d7c" clip-path="url(#language-bar)"/>
  <rect x="645.53" y="66" width="15.08" height="12" fill="#f1e05a" clip-path="url(#language-bar)"/>
  <rect x="660.61" y="66" width="15.08" height="12" fill="#6E4C13" clip-path="url(#language-bar)"/>
  <rect x="675.69" y="66" width="60.31" height="12" fill="#8b949e" clip-path="url(#language-bar)"/>

  <g>
    <g transform="translate(24 106)">
      <circle cx="6" cy="6" r="6" fill="#555555"/>
      <text x="24" y="11" fill="#f0f6fc" font-family="Inter, Segoe UI, Arial, sans-serif" font-size="18" font-weight="700">C</text>
      <text x="178" y="11" fill="#8b949e" font-family="Inter, Segoe UI, Arial, sans-serif" font-size="18">24.9%</text>
    </g>
    <g transform="translate(269 106)">
      <circle cx="6" cy="6" r="6" fill="#da5b0b"/>
      <text x="24" y="11" fill="#f0f6fc" font-family="Inter, Segoe UI, Arial, sans-serif" font-size="18" font-weight="700">Jupyter Notebook</text>
      <text x="178" y="11" fill="#8b949e" font-family="Inter, Segoe UI, Arial, sans-serif" font-size="18">22.8%</text>
    </g>
    <g transform="translate(514 106)">
      <circle cx="6" cy="6" r="6" fill="#3178c6"/>
      <text x="24" y="11" fill="#f0f6fc" font-family="Inter, Segoe UI, Arial, sans-serif" font-size="18" font-weight="700">TypeScript</text>
      <text x="178" y="11" fill="#8b949e" font-family="Inter, Segoe UI, Arial, sans-serif" font-size="18">17.2%</text>
    </g>
    <g transform="translate(24 146)">
      <circle cx="6" cy="6" r="6" fill="#e34c26"/>
      <text x="24" y="11" fill="#f0f6fc" font-family="Inter, Segoe UI, Arial, sans-serif" font-size="18" font-weight="700">HTML</text>
      <text x="178" y="11" fill="#8b949e" font-family="Inter, Segoe UI, Arial, sans-serif" font-size="18">10.1%</text>
    </g>
    <g transform="translate(269 146)">
      <circle cx="6" cy="6" r="6" fill="#3572A5"/>
      <text x="24" y="11" fill="#f0f6fc" font-family="Inter, Segoe UI, Arial, sans-serif" font-size="18" font-weight="700">Python</text>
      <text x="178" y="11" fill="#8b949e" font-family="Inter, Segoe UI, Arial, sans-serif" font-size="18">9.6%</text>
    </g>
    <g transform="translate(514 146)">
      <circle cx="6" cy="6" r="6" fill="#563d7c"/>
      <text x="24" y="11" fill="#f0f6fc" font-family="Inter, Segoe UI, Arial, sans-serif" font-size="18" font-weight="700">CSS</text>
      <text x="178" y="11" fill="#8b949e" font-family="Inter, Segoe UI, Arial, sans-serif" font-size="18">2.6%</text>
    </g>
    <g transform="translate(24 186)">
      <circle cx="6" cy="6" r="6" fill="#f1e05a"/>
      <text x="24" y="11" fill="#f0f6fc" font-family="Inter, Segoe UI, Arial, sans-serif" font-size="18" font-weight="700">JavaScript</text>
      <text x="178" y="11" fill="#8b949e" font-family="Inter, Segoe UI, Arial, sans-serif" font-size="18">2.1%</text>
    </g>
    <g transform="translate(269 186)">
      <circle cx="6" cy="6" r="6" fill="#6E4C13"/>
      <text x="24" y="11" fill="#f0f6fc" font-family="Inter, Segoe UI, Arial, sans-serif" font-size="18" font-weight="700">Assembly</text>
      <text x="178" y="11" fill="#8b949e" font-family="Inter, Segoe UI, Arial, sans-serif" font-size="18">2.1%</text>
    </g>
    <g transform="translate(514 186)">
      <circle cx="6" cy="6" r="6" fill="#8b949e"/>
      <text x="24" y="11" fill="#f0f6fc" font-family="Inter, Segoe UI, Arial, sans-serif" font-size="18" font-weight="700">Other</text>
      <text x="178" y="11" fill="#8b949e" font-family="Inter, Segoe UI, Arial, sans-serif" font-size="18">8.5%</text>
    </g>
  </g>

  <rect x="24" y="218" width="4" height="22" fill="#30363d"/>
  <text x="42" y="235" fill="#8b949e" font-family="Inter, Segoe UI, Arial, sans-serif" font-size="16">Generated daily by GitHub Actions · file count · public repos + forks · 2026-06-06</text>
</svg>
