<svg xmlns="http://www.w3.org/2000/svg" width="520" height="242" viewBox="0 0 520 242" role="img" aria-labelledby="title desc">
  <title id="title">Most used languages for kobadaidesu</title>
  <desc id="desc">Language usage from public repositories, forks included, based on counted source files.</desc>
  <style>
    .card { fill: #0d1117; stroke: #30363d; }
    .title { fill: #58a6ff; font: 600 18px -apple-system, BlinkMacSystemFont, Segoe UI, Helvetica, Arial, sans-serif; }
    .sub { fill: #8b949e; font: 400 12px -apple-system, BlinkMacSystemFont, Segoe UI, Helvetica, Arial, sans-serif; }
    .lang { fill: #c9d1d9; font: 600 14px -apple-system, BlinkMacSystemFont, Segoe UI, Helvetica, Arial, sans-serif; }
    .pct { fill: #8b949e; font: 400 14px -apple-system, BlinkMacSystemFont, Segoe UI, Helvetica, Arial, sans-serif; }
  </style>
  <rect class="card" x="0.5" y="0.5" width="519" height="241" rx="6"/>
  <text x="24" y="36" class="title">Most Used Languages</text>
  <text x="24" y="56" class="sub">1151 source files · public repos · forks included</text>
  <rect x="24" y="76" width="472" height="10" rx="5" fill="#21262d"/>
  <rect x="24" y="76" width="304" height="10" rx="5" fill="#3572A5"/>
    <rect x="328" y="76" width="44" height="10" rx="0" fill="#555555"/>
    <rect x="372" y="76" width="40" height="10" rx="0" fill="#DA5B0B"/>
    <rect x="412" y="76" width="30" height="10" rx="0" fill="#3178C6"/>
    <rect x="442" y="76" width="18" height="10" rx="0" fill="#E34C26"/>
    <rect x="460" y="76" width="13" height="10" rx="0" fill="#292929"/>
    <rect x="473" y="76" width="5" height="10" rx="0" fill="#563D7C"/>
    <rect x="478" y="76" width="5" height="10" rx="0" fill="#F1E05A"/>
    <rect x="483" y="76" width="13" height="10" rx="0" fill="#8B949E"/>
  
    <circle cx="30" cy="111" r="5" fill="#3572A5"/>
    <text x="44" y="116" class="lang">Python</text>
    <text x="184" y="116" class="pct">64.4%</text>

    <circle cx="276" cy="111" r="5" fill="#555555"/>
    <text x="290" y="116" class="lang">C</text>
    <text x="430" y="116" class="pct">9.3%</text>

    <circle cx="30" cy="141" r="5" fill="#DA5B0B"/>
    <text x="44" y="146" class="lang">Jupyter Notebook</text>
    <text x="184" y="146" class="pct">8.4%</text>

    <circle cx="276" cy="141" r="5" fill="#3178C6"/>
    <text x="290" y="146" class="lang">TypeScript</text>
    <text x="430" y="146" class="pct">6.3%</text>

    <circle cx="30" cy="171" r="5" fill="#E34C26"/>
    <text x="44" y="176" class="lang">HTML</text>
    <text x="184" y="176" class="pct">3.7%</text>

    <circle cx="276" cy="171" r="5" fill="#292929"/>
    <text x="290" y="176" class="lang">JSON</text>
    <text x="430" y="176" class="pct">2.7%</text>

    <circle cx="30" cy="201" r="5" fill="#563D7C"/>
    <text x="44" y="206" class="lang">CSS</text>
    <text x="184" y="206" class="pct">1.0%</text>

    <circle cx="276" cy="201" r="5" fill="#F1E05A"/>
    <text x="290" y="206" class="lang">JavaScript</text>
    <text x="430" y="206" class="pct">1.0%</text>

    <circle cx="30" cy="231" r="5" fill="#8B949E"/>
    <text x="44" y="236" class="lang">Other</text>
    <text x="184" y="236" class="pct">3.0%</text>
  <text x="24" y="224" class="sub">Updated 2026-06-06 · file-count based</text>
</svg>
