<svg xmlns="http://www.w3.org/2000/svg" width="760" height="430" viewBox="0 0 760 430" role="img" aria-labelledby="title desc">
  <title id="title">kobadaidesu public repository language file-count pie chart</title>
  <desc id="desc">A pie chart generated from extension-based file counts for public repositories, including forks.</desc>
  <rect width="760" height="430" rx="16" fill="#0d1117"/>
  <text x="32" y="46" fill="#f0f6fc" font-family="Inter, Segoe UI, Arial, sans-serif" font-size="24" font-weight="700">Language Mix</text>
  <text x="32" y="74" fill="#8b949e" font-family="Inter, Segoe UI, Arial, sans-serif" font-size="13">Public repositories, forks included, extension-based file count, snapshot: 2026-06-06</text>

  <g stroke="#0d1117" stroke-width="3" stroke-linejoin="round">
    <path d="M 215 215 L 215.00 90.00 A 125 125 0 0 1 340.00 214.54 Z" fill="#555555"/>
    <path d="M 215 215 L 340.00 214.54 A 125 125 0 0 1 232.50 338.77 Z" fill="#da5b0b"/>
    <path d="M 215 215 L 232.50 338.77 A 125 125 0 0 1 114.15 288.85 Z" fill="#3178c6"/>
    <path d="M 215 215 L 114.15 288.85 A 125 125 0 0 1 90.00 214.54 Z" fill="#e34c26"/>
    <path d="M 215 215 L 90.00 214.54 A 125 125 0 0 1 112.53 143.41 Z" fill="#3572A5"/>
    <path d="M 215 215 L 112.53 143.41 A 125 125 0 0 1 125.48 127.76 Z" fill="#563d7c"/>
    <path d="M 215 215 L 125.48 127.76 A 125 125 0 0 1 137.84 116.66 Z" fill="#f1e05a"/>
    <path d="M 215 215 L 137.84 116.66 A 125 125 0 0 1 151.57 107.29 Z" fill="#6E4C13"/>
    <path d="M 215 215 L 151.57 107.29 A 125 125 0 0 1 215.00 90.00 Z" fill="#8b949e"/>
  </g>

  <circle cx="215" cy="215" r="50" fill="#0d1117" stroke="#30363d" stroke-width="2"/>
  <text x="215" y="209" text-anchor="middle" fill="#f0f6fc" font-family="Inter, Segoe UI, Arial, sans-serif" font-size="20" font-weight="700">425</text>
  <text x="215" y="232" text-anchor="middle" fill="#8b949e" font-family="Inter, Segoe UI, Arial, sans-serif" font-size="13">files</text>

  <g font-family="Inter, Segoe UI, Arial, sans-serif" font-size="15">
    <g transform="translate(430 104)">
      <rect width="14" height="14" rx="3" fill="#555555"/>
      <text x="24" y="13" fill="#c9d1d9">C</text>
      <text x="230" y="13" fill="#f0f6fc" text-anchor="end" font-weight="700">24.9%</text>
    </g>
    <g transform="translate(430 140)">
      <rect width="14" height="14" rx="3" fill="#da5b0b"/>
      <text x="24" y="13" fill="#c9d1d9">Jupyter Notebook</text>
      <text x="230" y="13" fill="#f0f6fc" text-anchor="end" font-weight="700">22.8%</text>
    </g>
    <g transform="translate(430 176)">
      <rect width="14" height="14" rx="3" fill="#3178c6"/>
      <text x="24" y="13" fill="#c9d1d9">TypeScript</text>
      <text x="230" y="13" fill="#f0f6fc" text-anchor="end" font-weight="700">17.2%</text>
    </g>
    <g transform="translate(430 212)">
      <rect width="14" height="14" rx="3" fill="#e34c26"/>
      <text x="24" y="13" fill="#c9d1d9">HTML</text>
      <text x="230" y="13" fill="#f0f6fc" text-anchor="end" font-weight="700">10.1%</text>
    </g>
    <g transform="translate(430 248)">
      <rect width="14" height="14" rx="3" fill="#3572A5"/>
      <text x="24" y="13" fill="#c9d1d9">Python</text>
      <text x="230" y="13" fill="#f0f6fc" text-anchor="end" font-weight="700">9.6%</text>
    </g>
    <g transform="translate(430 284)">
      <rect width="14" height="14" rx="3" fill="#563d7c"/>
      <text x="24" y="13" fill="#c9d1d9">CSS</text>
      <text x="230" y="13" fill="#f0f6fc" text-anchor="end" font-weight="700">2.6%</text>
    </g>
    <g transform="translate(430 320)">
      <rect width="14" height="14" rx="3" fill="#f1e05a"/>
      <text x="24" y="13" fill="#c9d1d9">JavaScript</text>
      <text x="230" y="13" fill="#f0f6fc" text-anchor="end" font-weight="700">2.1%</text>
    </g>
    <g transform="translate(430 356)">
      <rect width="14" height="14" rx="3" fill="#6E4C13"/>
      <text x="24" y="13" fill="#c9d1d9">Assembly</text>
      <text x="230" y="13" fill="#f0f6fc" text-anchor="end" font-weight="700">2.1%</text>
    </g>
    <g transform="translate(430 392)">
      <rect width="14" height="14" rx="3" fill="#8b949e"/>
      <text x="24" y="13" fill="#c9d1d9">Other</text>
      <text x="230" y="13" fill="#f0f6fc" text-anchor="end" font-weight="700">8.5%</text>
    </g>
  </g>
</svg>
